PathFileType	4	(X/Y/Z)	44_1_29_p1_0-194_filt_butterworth.trc
DataRate	CameraRate	NumFrames	NumMarkers	Units	OrigDataRate	OrigDataStartFrame	OrigNumFrames
60.0	60.0	4	27	m	60.0	0	194
Frame#	Time	RHip			RKnee			RAnkle			RBigToe			RSmallToe			RHeel			LHip			LKnee			LAnkle			LBigToe			LSmallToe			LHeel			Neck			Head			Nose			RShoulder			RElbow			RWrist			RThumb			RIndex			RPinky			LShoulder			LElbow			LWrist			LThumb			LIndex			LPinky			
		X1	Y1	Z1	X2	Y2	Z2	X3	Y3	Z3	X4	Y4	Z4	X5	Y5	Z5	X6	Y6	Z6	X7	Y7	Z7	X8	Y8	Z8	X9	Y9	Z9	X10	Y10	Z10	X11	Y11	Z11	X12	Y12	Z12	X13	Y13	Z13	X14	Y14	Z14	X15	Y15	Z15	X16	Y16	Z16	X17	Y17	Z17	X18	Y18	Z18	X19	Y19	Z19	X20	Y20	Z20	X21	Y21	Z21	X22	Y22	Z22	X23	Y23	Z23	X24	Y24	Z24	X25	Y25	Z25	X26	Y26	Z26	X27	Y27	Z27	
0	0.0	0.3180889464787904	0.5005640211184108	1.0462696752279645	0.3512848763811764	0.5822245730822777	1.4530458829479922	0.35686045265325206	0.6570857175673337	1.8515148046957608	0.3118409405627492	0.49945532188637115	1.9045732628270227	0.3848981283913962	0.4866072799550347	1.8890889629300618	0.32944373496930623	0.7642207464392008	1.9219415167158485	0.1200262309978648	0.5225656996614028	1.0659404246512314	0.12040929026835238	0.5686084403409519	1.4694924127474775	0.1432633146926754	0.6359087789782694	1.8568789293016577	0.15150218920067374	0.4516335350681446	1.8707904934370543	0.09342326890201924	0.5204157878415079	1.8919840355016417	0.1696944129597337	0.7083171502330622	1.9141819205214983	0.21453562308415103	0.4115985280001687	0.4801821036684081	0.22029392515012133	0.3490702147432402	0.2457441323327704	0.20242918302958096	0.27701691721618976	0.37432738225890927	0.35791253535938555	0.3863866550023994	0.5731014296912995	0.3788301030046449	0.41143406956075235	0.8230025179308014	0.25295716740259944	0.390112710334796	1.0058557326764181	0.1821021677527236	0.4281410270740762	1.1061108912950768	0.17764492627852235	0.44244683459752404	1.1301147097619988	0.1913495573583027	0.4025032346977247	1.1301544590588688	0.05613359760335618	0.418724098209901	0.5601659388692699	0.036644607472859685	0.45477408875015013	0.8361844125731697	0.1517730092239237	0.3875580935762865	0.9908818690200186	0.2354094359049062	0.3597890961695515	1.0543791804271445	0.23800246941397535	0.37069986680452705	1.095078965697843	0.1726308780125022	0.4302455275233331	1.1493505057272981
1	0.0166666666666666	0.31830474958674304	0.4994031257461629	1.0483846478300474	0.3514196164759472	0.5809031669774201	1.4562479356312492	0.356817940849814	0.6568836409838051	1.8514634558283554	0.31304648059331835	0.5018870200400388	1.9046619440627586	0.3861048616244333	0.48240475228625695	1.8853566927512424	0.3291366197232792	0.7632730522060608	1.9219520518244673	0.1198943029868695	0.5225148132751141	1.0665193127650914	0.11983295771867142	0.5685031611384199	1.4731815949764475	0.14206846062030906	0.6351833046488543	1.8568042114369692	0.15215814019695312	0.45412412499349675	1.871922070014599	0.09313182126083003	0.5213300526346303	1.8897636080279623	0.16895113028586234	0.7089989714883795	1.9172803762203774	0.21453790163664652	0.41160092804008763	0.48017929795735437	0.22026367662887575	0.34906349197843123	0.24571766907772205	0.20243157827576785	0.27696375345268776	0.3731175552353102	0.3598636304246386	0.3876057384592039	0.573263390578947	0.3788633034731543	0.411525739295528	0.8230655894301462	0.25294480266069747	0.3902947194565814	1.0059145365796751	0.1821162584734424	0.4278970390661051	1.1067921633954882	0.1776197411947013	0.4422736570157325	1.1301938022355105	0.18804269168424267	0.4111582796147991	1.1345580777974151	0.05771005596483689	0.42570352179228443	0.5604290412277775	0.03762264646825889	0.45163802980384965	0.836499594166491	0.1498267761831069	0.38181766385608074	0.9918855814085175	0.23537896200168418	0.3594895061090179	1.054275986763414	0.23815114258223066	0.37003008346564925	1.0936758250076388	0.17277440127569846	0.42971527361087875	1.1525160451213101
2	0.0333333333333333	0.3188300527751756	0.4999597612080059	1.0500188157764736	0.35141349895259744	0.5799926409900644	1.4596544795859934	0.3567890735670536	0.6568106029296876	1.8514359034526524	0.3137200503257707	0.5027756031026465	1.9045791673143242	0.38652871662091387	0.4818480797803133	1.8835925989865896	0.3289314048912553	0.7624508645515897	1.9219251339129377	0.11972501703404555	0.5226780178828383	1.067550049757401	0.11938040556449164	0.5686472987876574	1.4754690361770388	0.14157263967300432	0.6348708398581119	1.856799284875691	0.1522143923246613	0.45408159553237293	1.8718281640284964	0.09295199091070623	0.5218363143230244	1.8884447974229321	0.16855060938370664	0.7094060597922832	1.9190370469999527	0.2145511974200382	0.4116644035781584	0.48017119640969985	0.22024165721195435	0.3490542863937335	0.24570053358780636	0.20243742630969672	0.2769026208049623	0.37229278954940126	0.36037048582263315	0.3881835073804194	0.5733501324454245	0.3788763853995848	0.4115756577061696	0.8231142515431662	0.25293161788670077	0.3904049774216568	1.00594721225508	0.18210094182979392	0.4277226043912176	1.107187737019721	0.1775878808633093	0.4421593055164291	1.1302539839802772	0.18603989355101072	0.41639485213583644	1.1372341009097342	0.05867091299991385	0.4299824058170806	0.5605905871417914	0.03766491362783907	0.451348113922449	0.8365281645858653	0.14791206037943186	0.3778037911118901	0.9924402830314061	0.23536057537740168	0.35934831244777077	1.0542313018297265	0.23832739956629906	0.3696742208321793	1.0923516422820725	0.17293401893362273	0.4291875868821061	1.1539552515413412
3	0.05	0.31985407458286963	0.5030565282576503	1.0515426318187564	0.35133620986500025	0.5794603996294975	1.4625056975728365	0.35676625465899725	0.6568428491608387	1.851386529114222	0.31361811438621895	0.5015617399928984	1.9039674933868977	0.386307871834075	0.4838825890870814	1.883631213721232	0.32884971124995777	0.7618966856702353	1.921881628657577	0.11953767802865485	0.5229944605195109	1.06889224167866	0.11919268336756825	0.5687838528433635	1.476343485439184	0.14199792201364908	0.6351163584537235	1.8568730429220504	0.15186575866224003	0.45240243401136326	1.8709454340085463	0.0928849272796824	0.5219420688691222	1.8880773981576882	0.16854847618339694	0.7094924912214593	1.919043462956091	0.2145984981957331	0.4118550788710037	0.48016042803159265	0.22023199115075542	0.34905068856623517	0.24569279883886203	0.20245182730694192	0.276825680581039	0.3719908777720677	0.35949422559336447	0.38801245815346114	0.5731320154409627	0.3788708231044453	0.41157930723446745	0.8231355609268338	0.25292635661890395	0.3904315422647835	1.0059484279700768	0.18205794562413993	0.4276248305976875	1.1072882207406747	0.17755254771904574	0.4421109058581263	1.1303002840614678	0.18545071060683696	0.41792794680103273	1.138041122309081	0.058981192486922046	0.4314157408509025	0.5606458529384003	0.03708110677387042	0.4530542643617568	0.8363607202656012	0.1462444144055886	0.37581668804094065	0.9925323605109548	0.2353207797690701	0.35933635627023036	1.0541937977727465	0.23846860368808226	0.3696666207683047	1.0913024455617286	0.17302566051335616	0.4288236895681797	1.1537552972523986
